<?xml version="1.0" encoding="UTF-8" standalone="no"?>
<!DOCTYPE svg PUBLIC "-//W3C//DTD SVG 1.1//EN"
 "http://www.w3.org/Graphics/SVG/1.1/DTD/svg11.dtd">
<!-- Generated by graphviz version 2.40.1 (20161225.0304)
 -->
<!-- Title: state transitions Pages: 1 -->
<svg width="462pt" height="294pt"
 viewBox="0.00 0.00 462.00 294.00" xmlns="http://www.w3.org/2000/svg" xmlns:xlink="http://www.w3.org/1999/xlink">
<g id="graph0" class="graph" transform="scale(1 1) rotate(0) translate(4 290)">
<title>state transitions</title>
<polygon fill="#ffffff" stroke="transparent" points="-4,4 -4,-290 458,-290 458,4 -4,4"/>
<g id="clust1" class="cluster state regular">
<title>cluster_p_state</title>
<path fill="none" stroke="#000000" stroke-width="2" d="M20,-8C20,-8 434,-8 434,-8 440,-8 446,-14 446,-20 446,-20 446,-266 446,-266 446,-272 440,-278 434,-278 434,-278 20,-278 20,-278 14,-278 8,-272 8,-266 8,-266 8,-20 8,-20 8,-14 14,-8 20,-8"/>
<text text-anchor="start" x="207.8236" y="-259.2" font-family="Helvetica,sans-Serif" font-size="12.00" fill="#000000">p_state</text>
</g>
<!-- p_state -->
<!-- P_IDLE -->
<g id="node2" class="node state regular">
<title>P_IDLE</title>
<polygon fill="#ffffff" fill-opacity="0.003922" stroke="transparent" stroke-width="2" points="149.5,-240 86.5,-240 86.5,-204 149.5,-204 149.5,-240"/>
<text text-anchor="start" x="97.8276" y="-218.2" font-family="Helvetica,sans-Serif" font-size="12.00" fill="#000000">P_IDLE</text>
<path fill="none" stroke="#000000" stroke-width="2" d="M98.8333,-205C98.8333,-205 137.1667,-205 137.1667,-205 142.8333,-205 148.5,-210.6667 148.5,-216.3333 148.5,-216.3333 148.5,-227.6667 148.5,-227.6667 148.5,-233.3333 142.8333,-239 137.1667,-239 137.1667,-239 98.8333,-239 98.8333,-239 93.1667,-239 87.5,-233.3333 87.5,-227.6667 87.5,-227.6667 87.5,-216.3333 87.5,-216.3333 87.5,-210.6667 93.1667,-205 98.8333,-205"/>
</g>
<!-- P_LOOKUP -->
<g id="node3" class="node state regular">
<title>P_LOOKUP</title>
<polygon fill="#ffffff" fill-opacity="0.003922" stroke="transparent" stroke-width="2" points="215,-158 129,-158 129,-122 215,-122 215,-158"/>
<text text-anchor="start" x="139.6588" y="-136.2" font-family="Helvetica,sans-Serif" font-size="12.00" fill="#000000">P_LOOKUP</text>
<path fill="none" stroke="#000000" stroke-width="2" d="M141.3333,-123C141.3333,-123 202.6667,-123 202.6667,-123 208.3333,-123 214,-128.6667 214,-134.3333 214,-134.3333 214,-145.6667 214,-145.6667 214,-151.3333 208.3333,-157 202.6667,-157 202.6667,-157 141.3333,-157 141.3333,-157 135.6667,-157 130,-151.3333 130,-145.6667 130,-145.6667 130,-134.3333 130,-134.3333 130,-128.6667 135.6667,-123 141.3333,-123"/>
</g>
<!-- P_IDLE&#45;&gt;P_LOOKUP -->
<g id="edge1" class="edge transition">
<title>P_IDLE&#45;&gt;P_LOOKUP</title>
<path fill="none" stroke="#000000" d="M129.9844,-203.8015C137.1853,-192.8668 146.4756,-178.7593 154.4884,-166.5916"/>
<polygon fill="#000000" stroke="#000000" points="157.4723,-168.4243 160.0492,-158.1476 151.6261,-164.5743 157.4723,-168.4243"/>
<text text-anchor="start" x="148" y="-178" font-family="Helvetica,sans-Serif" font-size="10.00" fill="#000000">p_h0_hashed_valid &#160;&#160;</text>
</g>
<!-- P_UPDATE -->
<g id="node4" class="node state regular">
<title>P_UPDATE</title>
<polygon fill="#ffffff" fill-opacity="0.003922" stroke="transparent" stroke-width="2" points="101.5,-52 16.5,-52 16.5,-16 101.5,-16 101.5,-52"/>
<text text-anchor="start" x="27.8308" y="-30.2" font-family="Helvetica,sans-Serif" font-size="12.00" fill="#000000">P_UPDATE</text>
<path fill="none" stroke="#000000" stroke-width="2" d="M28.8333,-17C28.8333,-17 89.1667,-17 89.1667,-17 94.8333,-17 100.5,-22.6667 100.5,-28.3333 100.5,-28.3333 100.5,-39.6667 100.5,-39.6667 100.5,-45.3333 94.8333,-51 89.1667,-51 89.1667,-51 28.8333,-51 28.8333,-51 23.1667,-51 17.5,-45.3333 17.5,-39.6667 17.5,-39.6667 17.5,-28.3333 17.5,-28.3333 17.5,-22.6667 23.1667,-17 28.8333,-17"/>
</g>
<!-- P_LOOKUP&#45;&gt;P_UPDATE -->
<g id="edge2" class="edge transition">
<title>P_LOOKUP&#45;&gt;P_UPDATE</title>
<path fill="none" stroke="#000000" d="M136.5498,-121.9038C128.4384,-116.9742 120.1484,-111.2489 113.136,-105 98.6649,-92.1044 85.4144,-74.8664 75.6447,-60.6052"/>
<polygon fill="#000000" stroke="#000000" points="78.4874,-58.5594 70.0317,-52.1756 72.6609,-62.4391 78.4874,-58.5594"/>
<text text-anchor="start" x="113" y="-90" font-family="Helvetica,sans-Serif" font-size="10.00" fill="#000000">p_ft_hit != 0 &#160;&#160;</text>
<text text-anchor="start" x="113" y="-78" font-family="Helvetica,sans-Serif" font-size="10.00" fill="#000000">rd_valid_b &#160;&#160;</text>
</g>
<!-- P_INSERT_NO_EVIC -->
<g id="node5" class="node state regular">
<title>P_INSERT_NO_EVIC</title>
<polygon fill="#ffffff" fill-opacity="0.003922" stroke="transparent" stroke-width="2" points="264,-52 124,-52 124,-16 264,-16 264,-52"/>
<text text-anchor="start" x="134.9936" y="-30.2" font-family="Helvetica,sans-Serif" font-size="12.00" fill="#000000">P_INSERT_NO_EVIC</text>
<path fill="none" stroke="#000000" stroke-width="2" d="M136.3333,-17C136.3333,-17 251.6667,-17 251.6667,-17 257.3333,-17 263,-22.6667 263,-28.3333 263,-28.3333 263,-39.6667 263,-39.6667 263,-45.3333 257.3333,-51 251.6667,-51 251.6667,-51 136.3333,-51 136.3333,-51 130.6667,-51 125,-45.3333 125,-39.6667 125,-39.6667 125,-28.3333 125,-28.3333 125,-22.6667 130.6667,-17 136.3333,-17"/>
</g>
<!-- P_LOOKUP&#45;&gt;P_INSERT_NO_EVIC -->
<g id="edge3" class="edge transition">
<title>P_LOOKUP&#45;&gt;P_INSERT_NO_EVIC</title>
<path fill="none" stroke="#000000" d="M175.8321,-121.5362C179.2391,-105.1206 184.2711,-80.8757 188.1759,-62.0616"/>
<polygon fill="#000000" stroke="#000000" points="191.6065,-62.7548 190.2118,-52.2522 184.7526,-61.3323 191.6065,-62.7548"/>
<text text-anchor="start" x="186" y="-90" font-family="Helvetica,sans-Serif" font-size="10.00" fill="#000000">p_ft_empty != 0 &#160;&#160;</text>
<text text-anchor="start" x="186" y="-78" font-family="Helvetica,sans-Serif" font-size="10.00" fill="#000000">rd_valid_b &#160;&#160;</text>
</g>
<!-- P_INSERT_EVIC -->
<g id="node6" class="node state regular">
<title>P_INSERT_EVIC</title>
<polygon fill="#ffffff" fill-opacity="0.003922" stroke="transparent" stroke-width="2" points="419.5,-52 304.5,-52 304.5,-16 419.5,-16 419.5,-52"/>
<text text-anchor="start" x="315.8278" y="-30.2" font-family="Helvetica,sans-Serif" font-size="12.00" fill="#000000">P_INSERT_EVIC</text>
<path fill="none" stroke="#000000" stroke-width="2" d="M316.8333,-17C316.8333,-17 407.1667,-17 407.1667,-17 412.8333,-17 418.5,-22.6667 418.5,-28.3333 418.5,-28.3333 418.5,-39.6667 418.5,-39.6667 418.5,-45.3333 412.8333,-51 407.1667,-51 407.1667,-51 316.8333,-51 316.8333,-51 311.1667,-51 305.5,-45.3333 305.5,-39.6667 305.5,-39.6667 305.5,-28.3333 305.5,-28.3333 305.5,-22.6667 311.1667,-17 316.8333,-17"/>
</g>
<!-- P_LOOKUP&#45;&gt;P_INSERT_EVIC -->
<g id="edge4" class="edge transition">
<title>P_LOOKUP&#45;&gt;P_INSERT_EVIC</title>
<path fill="none" stroke="#000000" d="M215.2358,-127.5513C232.4762,-121.7888 252.1812,-114.17 269,-105 292.663,-92.0985 316.779,-73.4985 334.5222,-58.5725"/>
<polygon fill="#000000" stroke="#000000" points="336.8753,-61.1655 342.2015,-52.0067 332.3264,-55.845 336.8753,-61.1655"/>
<text text-anchor="start" x="321" y="-96" font-family="Helvetica,sans-Serif" font-size="10.00" fill="#000000">not (p_ft_hit != 0) &#160;&#160;</text>
<text text-anchor="start" x="321" y="-84" font-family="Helvetica,sans-Serif" font-size="10.00" fill="#000000">not (p_ft_empty != 0) &#160;&#160;</text>
<text text-anchor="start" x="321" y="-72" font-family="Helvetica,sans-Serif" font-size="10.00" fill="#000000">rd_valid_b &#160;&#160;</text>
</g>
<!-- P_UPDATE&#45;&gt;P_IDLE -->
<g id="edge5" class="edge transition">
<title>P_UPDATE&#45;&gt;P_IDLE</title>
<path fill="none" stroke="#000000" d="M39.3413,-52.1618C37.5885,-54.6234 36.0737,-57.2538 35,-60 27.7172,-78.6269 31.3753,-85.3312 35,-105 43.1418,-149.1801 47.6955,-163.7789 79,-196 79.4253,-196.4377 79.8591,-196.8721 80.3007,-197.303"/>
<polygon fill="#000000" stroke="#000000" points="78.1349,-200.0573 87.9896,-203.9478 82.712,-194.761 78.1349,-200.0573"/>
<text text-anchor="middle" x="50.3895" y="-137" font-family="Helvetica,sans-Serif" font-size="10.00" fill="#000000"> </text>
</g>
<!-- P_INSERT_NO_EVIC&#45;&gt;P_IDLE -->
<g id="edge6" class="edge transition">
<title>P_INSERT_NO_EVIC&#45;&gt;P_IDLE</title>
<path fill="none" stroke="#000000" d="M123.6969,-51.4164C100.7975,-57.7823 80.3398,-64.5149 77,-69 48.9264,-106.7009 76.6204,-162.2662 98.1262,-195.0324"/>
<polygon fill="#000000" stroke="#000000" points="95.4591,-197.3345 103.9764,-203.6357 101.2476,-193.3983 95.4591,-197.3345"/>
<text text-anchor="middle" x="78.3895" y="-137" font-family="Helvetica,sans-Serif" font-size="10.00" fill="#000000"> </text>
</g>
<!-- P_INSERT_EVIC&#45;&gt;P_IDLE -->
<g id="edge7" class="edge transition">
<title>P_INSERT_EVIC&#45;&gt;P_IDLE</title>
<path fill="none" stroke="#000000" d="M410.3888,-52.0823C417.0116,-56.6074 422.9252,-62.1779 427,-69 435.2046,-82.7363 435.6424,-91.5349 427,-105 397.0876,-151.6046 236.5211,-194.4644 159.4009,-212.7171"/>
<polygon fill="#000000" stroke="#000000" points="158.4769,-209.3387 149.5373,-215.0249 160.0717,-216.1546 158.4769,-209.3387"/>
<text text-anchor="middle" x="411.3895" y="-137" font-family="Helvetica,sans-Serif" font-size="10.00" fill="#000000"> </text>
</g>
</g>
</svg>
