<?xml version="1.0" encoding="UTF-8" standalone="no"?>
<!DOCTYPE svg PUBLIC "-//W3C//DTD SVG 1.1//EN"
 "http://www.w3.org/Graphics/SVG/1.1/DTD/svg11.dtd">
<!-- Generated by graphviz version 2.40.1 (20161225.0304)
 -->
<!-- Title: state transitions Pages: 1 -->
<svg width="924pt" height="400pt"
 viewBox="0.00 0.00 924.00 400.00" xmlns="http://www.w3.org/2000/svg" xmlns:xlink="http://www.w3.org/1999/xlink">
<g id="graph0" class="graph" transform="scale(1 1) rotate(0) translate(4 396)">
<title>state transitions</title>
<polygon fill="#ffffff" stroke="transparent" points="-4,4 -4,-396 920,-396 920,4 -4,4"/>
<g id="clust1" class="cluster state regular">
<title>cluster_state</title>
<path fill="none" stroke="#000000" stroke-width="2" d="M20,-8C20,-8 896,-8 896,-8 902,-8 908,-14 908,-20 908,-20 908,-372 908,-372 908,-378 902,-384 896,-384 896,-384 20,-384 20,-384 14,-384 8,-378 8,-372 8,-372 8,-20 8,-20 8,-14 14,-8 20,-8"/>
<text text-anchor="start" x="444.9944" y="-365.2" font-family="Helvetica,sans-Serif" font-size="12.00" fill="#000000">state</text>
</g>
<!-- state -->
<!-- START_TRANSFER -->
<g id="node2" class="node state regular">
<title>START_TRANSFER</title>
<polygon fill="#ffffff" fill-opacity="0.003922" stroke="transparent" stroke-width="2" points="601,-346 469,-346 469,-310 601,-310 601,-346"/>
<text text-anchor="start" x="479.6704" y="-324.2" font-family="Helvetica,sans-Serif" font-size="12.00" fill="#000000">START_TRANSFER</text>
<path fill="none" stroke="#000000" stroke-width="2" d="M481.3333,-311C481.3333,-311 588.6667,-311 588.6667,-311 594.3333,-311 600,-316.6667 600,-322.3333 600,-322.3333 600,-333.6667 600,-333.6667 600,-339.3333 594.3333,-345 588.6667,-345 588.6667,-345 481.3333,-345 481.3333,-345 475.6667,-345 470,-339.3333 470,-333.6667 470,-333.6667 470,-322.3333 470,-322.3333 470,-316.6667 475.6667,-311 481.3333,-311"/>
</g>
<!-- COMPLETE_BURST -->
<g id="node3" class="node state regular">
<title>COMPLETE_BURST</title>
<polygon fill="#ffffff" fill-opacity="0.003922" stroke="transparent" stroke-width="2" points="316.5,-252 181.5,-252 181.5,-216 316.5,-216 316.5,-252"/>
<text text-anchor="start" x="192.8324" y="-230.2" font-family="Helvetica,sans-Serif" font-size="12.00" fill="#000000">COMPLETE_BURST</text>
<path fill="none" stroke="#000000" stroke-width="2" d="M193.8333,-217C193.8333,-217 304.1667,-217 304.1667,-217 309.8333,-217 315.5,-222.6667 315.5,-228.3333 315.5,-228.3333 315.5,-239.6667 315.5,-239.6667 315.5,-245.3333 309.8333,-251 304.1667,-251 304.1667,-251 193.8333,-251 193.8333,-251 188.1667,-251 182.5,-245.3333 182.5,-239.6667 182.5,-239.6667 182.5,-228.3333 182.5,-228.3333 182.5,-222.6667 188.1667,-217 193.8333,-217"/>
</g>
<!-- START_TRANSFER&#45;&gt;COMPLETE_BURST -->
<g id="edge2" class="edge transition">
<title>START_TRANSFER&#45;&gt;COMPLETE_BURST</title>
<path fill="none" stroke="#000000" d="M468.6623,-313.6569C444.8139,-307.9534 417.8485,-300.8688 393.699,-293 361.3953,-282.4743 326.0689,-268.1274 298.4079,-256.2168"/>
<polygon fill="#000000" stroke="#000000" points="299.5278,-252.8875 288.9611,-252.1158 296.7403,-259.3085 299.5278,-252.8875"/>
<text text-anchor="start" x="393" y="-284" font-family="Helvetica,sans-Serif" font-size="10.00" fill="#000000">missing_flits_in_transfer != 0 &#160;&#160;</text>
<text text-anchor="start" x="393" y="-272" font-family="Helvetica,sans-Serif" font-size="10.00" fill="#000000">can_start_transfer &#160;&#160;</text>
</g>
<!-- START_BURST -->
<g id="node4" class="node state regular">
<title>START_BURST</title>
<polygon fill="#ffffff" fill-opacity="0.003922" stroke="transparent" stroke-width="2" points="464,-146 356,-146 356,-110 464,-110 464,-146"/>
<text text-anchor="start" x="366.6686" y="-124.2" font-family="Helvetica,sans-Serif" font-size="12.00" fill="#000000">START_BURST</text>
<path fill="none" stroke="#000000" stroke-width="2" d="M368.3333,-111C368.3333,-111 451.6667,-111 451.6667,-111 457.3333,-111 463,-116.6667 463,-122.3333 463,-122.3333 463,-133.6667 463,-133.6667 463,-139.3333 457.3333,-145 451.6667,-145 451.6667,-145 368.3333,-145 368.3333,-145 362.6667,-145 357,-139.3333 357,-133.6667 357,-133.6667 357,-122.3333 357,-122.3333 357,-116.6667 362.6667,-111 368.3333,-111"/>
</g>
<!-- START_TRANSFER&#45;&gt;START_BURST -->
<g id="edge3" class="edge transition">
<title>START_TRANSFER&#45;&gt;START_BURST</title>
<path fill="none" stroke="#000000" d="M533.1893,-309.9742C531.7551,-286.2822 532.5756,-244.3568 552.088,-216 560.7561,-203.4029 574.3095,-212.2166 582,-199 590.047,-185.1708 592.1231,-175.3905 582,-163 568.39,-146.3417 517.4792,-137.4122 474.549,-132.7533"/>
<polygon fill="#000000" stroke="#000000" points="474.7059,-129.2511 464.4012,-131.7133 473.9923,-136.2147 474.7059,-129.2511"/>
<text text-anchor="start" x="552" y="-237" font-family="Helvetica,sans-Serif" font-size="10.00" fill="#000000">cur_meta.size &gt; 1 &#160;&#160;</text>
<text text-anchor="start" x="552" y="-225" font-family="Helvetica,sans-Serif" font-size="10.00" fill="#000000">can_start_transfer &#160;&#160;</text>
</g>
<!-- SEND_DESCRIPTOR -->
<g id="node5" class="node state regular">
<title>SEND_DESCRIPTOR</title>
<polygon fill="#ffffff" fill-opacity="0.003922" stroke="transparent" stroke-width="2" points="480,-52 340,-52 340,-16 480,-16 480,-52"/>
<text text-anchor="start" x="350.669" y="-30.2" font-family="Helvetica,sans-Serif" font-size="12.00" fill="#000000">SEND_DESCRIPTOR</text>
<path fill="none" stroke="#000000" stroke-width="2" d="M352.3333,-17C352.3333,-17 467.6667,-17 467.6667,-17 473.3333,-17 479,-22.6667 479,-28.3333 479,-28.3333 479,-39.6667 479,-39.6667 479,-45.3333 473.3333,-51 467.6667,-51 467.6667,-51 352.3333,-51 352.3333,-51 346.6667,-51 341,-45.3333 341,-39.6667 341,-39.6667 341,-28.3333 341,-28.3333 341,-22.6667 346.6667,-17 352.3333,-17"/>
</g>
<!-- START_TRANSFER&#45;&gt;SEND_DESCRIPTOR -->
<g id="edge1" class="edge transition">
<title>START_TRANSFER&#45;&gt;SEND_DESCRIPTOR</title>
<path fill="none" stroke="#000000" d="M468.7453,-325.0986C333.4342,-318.732 38,-302.383 38,-281 38,-281 38,-281 38,-81 38,-51.8437 220.1925,-40.4774 329.5692,-36.2809"/>
<polygon fill="#000000" stroke="#000000" points="329.7292,-39.7775 339.5923,-35.9085 329.4692,-32.7823 329.7292,-39.7775"/>
<text text-anchor="start" x="38" y="-178" font-family="Helvetica,sans-Serif" font-size="10.00" fill="#000000">next_meta_dsc_only &#160;&#160;</text>
</g>
<!-- START_TRANSFER&#45;&gt;SEND_DESCRIPTOR -->
<g id="edge4" class="edge transition">
<title>START_TRANSFER&#45;&gt;SEND_DESCRIPTOR</title>
<path fill="none" stroke="#000000" d="M601.1222,-311.4334C625.3707,-303.3745 647,-292.8615 647,-281 647,-281 647,-281 647,-81 647,-64.6328 558.9092,-50.7532 490.1393,-42.4114"/>
<polygon fill="#000000" stroke="#000000" points="490.4896,-38.9285 480.1459,-41.2212 489.6617,-45.8794 490.4896,-38.9285"/>
<text text-anchor="start" x="647" y="-184" font-family="Helvetica,sans-Serif" font-size="10.00" fill="#000000">cur_meta.needs_dsc &#160;&#160;</text>
<text text-anchor="start" x="647" y="-172" font-family="Helvetica,sans-Serif" font-size="10.00" fill="#000000">can_start_transfer &#160;&#160;</text>
</g>
<!-- COMPLETE_BURST&#45;&gt;START_BURST -->
<g id="edge5" class="edge transition">
<title>COMPLETE_BURST&#45;&gt;START_BURST</title>
<path fill="none" stroke="#000000" d="M313.0113,-215.981C324.4859,-211.3603 335.9702,-205.7409 346,-199 363.7311,-187.0832 379.8135,-169.1973 391.4216,-154.3591"/>
<polygon fill="#000000" stroke="#000000" points="394.472,-156.1284 397.7178,-146.043 388.8911,-151.903 394.472,-156.1284"/>
<text text-anchor="start" x="383" y="-190" font-family="Helvetica,sans-Serif" font-size="10.00" fill="#000000">transf_meta.pkt_meta.size &gt; 1 &#160;&#160;</text>
<text text-anchor="start" x="383" y="-178" font-family="Helvetica,sans-Serif" font-size="10.00" fill="#000000">transf_meta.missing_flits_in_transfer == 1 &#160;&#160;</text>
<text text-anchor="start" x="383" y="-166" font-family="Helvetica,sans-Serif" font-size="10.00" fill="#000000">can_continue_dma &#160;&#160;</text>
</g>
<!-- COMPLETE_BURST&#45;&gt;SEND_DESCRIPTOR -->
<g id="edge6" class="edge transition">
<title>COMPLETE_BURST&#45;&gt;SEND_DESCRIPTOR</title>
<path fill="none" stroke="#000000" d="M216.8204,-215.9502C178.3051,-192.0132 122.3815,-148.3193 151.07,-110 172.6691,-81.15 261.8277,-59.527 329.5402,-46.8644"/>
<polygon fill="#000000" stroke="#000000" points="330.582,-50.2318 339.7866,-44.9854 329.3193,-43.3466 330.582,-50.2318"/>
<text text-anchor="start" x="151" y="-137" font-family="Helvetica,sans-Serif" font-size="10.00" fill="#000000">transf_meta.pkt_meta.needs_dsc &#160;&#160;</text>
<text text-anchor="start" x="151" y="-125" font-family="Helvetica,sans-Serif" font-size="10.00" fill="#000000">transf_meta.missing_flits_in_transfer == 1 &#160;&#160;</text>
<text text-anchor="start" x="151" y="-113" font-family="Helvetica,sans-Serif" font-size="10.00" fill="#000000">can_continue_dma &#160;&#160;</text>
</g>
<!-- START_BURST&#45;&gt;COMPLETE_BURST -->
<g id="edge7" class="edge transition">
<title>START_BURST&#45;&gt;COMPLETE_BURST</title>
<path fill="none" stroke="#000000" d="M355.8807,-142.441C350.2019,-143.7402 344.4971,-144.9567 339,-146 309.6614,-151.5684 225.4341,-140.5882 205.699,-163 195.1251,-175.008 198.8043,-184.5617 205.699,-199 207.3365,-202.4291 209.4922,-205.6304 211.9683,-208.593"/>
<polygon fill="#000000" stroke="#000000" points="209.6247,-211.2013 219.1354,-215.8702 214.6121,-206.2894 209.6247,-211.2013"/>
<text text-anchor="start" x="205" y="-184" font-family="Helvetica,sans-Serif" font-size="10.00" fill="#000000">missing_flits_in_transfer != 0 &#160;&#160;</text>
<text text-anchor="start" x="205" y="-172" font-family="Helvetica,sans-Serif" font-size="10.00" fill="#000000">can_continue_dma &#160;&#160;</text>
</g>
<!-- START_BURST&#45;&gt;START_BURST -->
<g id="edge8" class="edge transition">
<title>START_BURST&#45;&gt;START_BURST</title>
<path fill="none" stroke="#000000" d="M464.3104,-132.7676C476.8147,-132.3568 486,-130.7676 486,-128 486,-126.054 481.4589,-124.6907 474.416,-123.9099"/>
<polygon fill="#000000" stroke="#000000" points="474.5221,-120.4092 464.3104,-123.2324 474.0539,-127.3935 474.5221,-120.4092"/>
<text text-anchor="start" x="486" y="-131" font-family="Helvetica,sans-Serif" font-size="10.00" fill="#000000">transf_meta.pkt_meta.size &gt; 1 &#160;&#160;</text>
<text text-anchor="start" x="486" y="-119" font-family="Helvetica,sans-Serif" font-size="10.00" fill="#000000">can_continue_dma &#160;&#160;</text>
</g>
<!-- START_BURST&#45;&gt;SEND_DESCRIPTOR -->
<g id="edge9" class="edge transition">
<title>START_BURST&#45;&gt;SEND_DESCRIPTOR</title>
<path fill="none" stroke="#000000" d="M410,-109.8759C410,-96.3516 410,-77.6192 410,-62.1514"/>
<polygon fill="#000000" stroke="#000000" points="413.5001,-62.0685 410,-52.0685 406.5001,-62.0685 413.5001,-62.0685"/>
<text text-anchor="start" x="410" y="-84" font-family="Helvetica,sans-Serif" font-size="10.00" fill="#000000">transf_meta.pkt_meta.needs_dsc &#160;&#160;</text>
<text text-anchor="start" x="410" y="-72" font-family="Helvetica,sans-Serif" font-size="10.00" fill="#000000">can_continue_dma &#160;&#160;</text>
</g>
<!-- SEND_DESCRIPTOR&#45;&gt;START_TRANSFER -->
<g id="edge11" class="edge transition">
<title>SEND_DESCRIPTOR&#45;&gt;START_TRANSFER</title>
<path fill="none" stroke="#000000" d="M480.0647,-35.6512C590.3448,-39.197 792,-49.9289 792,-81 792,-281 792,-281 792,-281 792,-299.5574 686.9738,-313.5956 611.201,-321.3089"/>
<polygon fill="#000000" stroke="#000000" points="610.7865,-317.8328 601.1839,-322.3095 611.4823,-324.7982 610.7865,-317.8328"/>
<text text-anchor="start" x="792" y="-178" font-family="Helvetica,sans-Serif" font-size="10.00" fill="#000000">!pcie_bas_waitrequest &#160;&#160;</text>
</g>
<!-- SEND_DESCRIPTOR&#45;&gt;SEND_DESCRIPTOR -->
<g id="edge10" class="edge transition">
<title>SEND_DESCRIPTOR&#45;&gt;SEND_DESCRIPTOR</title>
<path fill="none" stroke="#000000" d="M480.1968,-38.6072C493.0119,-38.024 502,-36.4883 502,-34 502,-32.2504 497.5564,-30.9718 490.4633,-30.1641"/>
<polygon fill="#000000" stroke="#000000" points="490.4309,-26.6518 480.1968,-29.3928 489.9065,-33.6322 490.4309,-26.6518"/>
<text text-anchor="start" x="502" y="-37" font-family="Helvetica,sans-Serif" font-size="10.00" fill="#000000">next_meta_dsc_only &#160;&#160;</text>
<text text-anchor="start" x="502" y="-25" font-family="Helvetica,sans-Serif" font-size="10.00" fill="#000000">!pcie_bas_waitrequest &#160;&#160;</text>
</g>
</g>
</svg>
