<?xml version="1.0" encoding="UTF-8" standalone="no"?>
<!DOCTYPE svg PUBLIC "-//W3C//DTD SVG 1.1//EN"
 "http://www.w3.org/Graphics/SVG/1.1/DTD/svg11.dtd">
<!-- Generated by graphviz version 2.40.1 (20161225.0304)
 -->
<!-- Title: state transitions Pages: 1 -->
<svg width="416pt" height="352pt"
 viewBox="0.00 0.00 416.00 352.00" xmlns="http://www.w3.org/2000/svg" xmlns:xlink="http://www.w3.org/1999/xlink">
<g id="graph0" class="graph" transform="scale(1 1) rotate(0) translate(4 348)">
<title>state transitions</title>
<polygon fill="#ffffff" stroke="transparent" points="-4,4 -4,-348 412,-348 412,4 -4,4"/>
<g id="clust1" class="cluster state regular">
<title>cluster_dsc_q_request_fsm_state</title>
<path fill="none" stroke="#000000" stroke-width="2" d="M20,-8C20,-8 388,-8 388,-8 394,-8 400,-14 400,-20 400,-20 400,-324 400,-324 400,-330 394,-336 388,-336 388,-336 20,-336 20,-336 14,-336 8,-330 8,-324 8,-324 8,-20 8,-20 8,-14 14,-8 20,-8"/>
<text text-anchor="start" x="135.8108" y="-317.2" font-family="Helvetica,sans-Serif" font-size="12.00" fill="#000000">dsc_q_request_fsm_state</text>
</g>
<!-- dsc_q_request_fsm_state -->
<!-- IDLE -->
<g id="node2" class="node state regular">
<title>IDLE</title>
<polygon fill="#ffffff" fill-opacity="0.003922" stroke="transparent" stroke-width="2" points="147,-298 91,-298 91,-262 147,-262 147,-298"/>
<text text-anchor="start" x="105.6644" y="-276.2" font-family="Helvetica,sans-Serif" font-size="12.00" fill="#000000">IDLE</text>
<path fill="none" stroke="#000000" stroke-width="2" d="M103.3333,-263C103.3333,-263 134.6667,-263 134.6667,-263 140.3333,-263 146,-268.6667 146,-274.3333 146,-274.3333 146,-285.6667 146,-285.6667 146,-291.3333 140.3333,-297 134.6667,-297 134.6667,-297 103.3333,-297 103.3333,-297 97.6667,-297 92,-291.3333 92,-285.6667 92,-285.6667 92,-274.3333 92,-274.3333 92,-268.6667 97.6667,-263 103.3333,-263"/>
</g>
<!-- DELAY_0 -->
<g id="node3" class="node state regular">
<title>DELAY_0</title>
<polygon fill="#ffffff" fill-opacity="0.003922" stroke="transparent" stroke-width="2" points="134,-216 60,-216 60,-180 134,-180 134,-216"/>
<text text-anchor="start" x="70.6582" y="-194.2" font-family="Helvetica,sans-Serif" font-size="12.00" fill="#000000">DELAY_0</text>
<path fill="none" stroke="#000000" stroke-width="2" d="M72.3333,-181C72.3333,-181 121.6667,-181 121.6667,-181 127.3333,-181 133,-186.6667 133,-192.3333 133,-192.3333 133,-203.6667 133,-203.6667 133,-209.3333 127.3333,-215 121.6667,-215 121.6667,-215 72.3333,-215 72.3333,-215 66.6667,-215 61,-209.3333 61,-203.6667 61,-203.6667 61,-192.3333 61,-192.3333 61,-186.6667 66.6667,-181 72.3333,-181"/>
</g>
<!-- IDLE&#45;&gt;DELAY_0 -->
<g id="edge1" class="edge transition">
<title>IDLE&#45;&gt;DELAY_0</title>
<path fill="none" stroke="#000000" d="M90.7481,-271.8823C77.5655,-266.5205 63.1149,-258.0165 55.422,-245 50.9998,-237.5175 53.372,-230.134 58.7334,-223.5145"/>
<polygon fill="#000000" stroke="#000000" points="61.538,-225.6622 66.1721,-216.1346 56.608,-220.6928 61.538,-225.6622"/>
<text text-anchor="start" x="55" y="-236" font-family="Helvetica,sans-Serif" font-size="10.00" fill="#000000">dsc_queue_request_fifo_out_ready &amp; dsc_queue_request_fifo_out_valid &#160;&#160;</text>
</g>
<!-- DELAY_1 -->
<g id="node4" class="node state regular">
<title>DELAY_1</title>
<polygon fill="#ffffff" fill-opacity="0.003922" stroke="transparent" stroke-width="2" points="211,-134 137,-134 137,-98 211,-98 211,-134"/>
<text text-anchor="start" x="147.6582" y="-112.2" font-family="Helvetica,sans-Serif" font-size="12.00" fill="#000000">DELAY_1</text>
<path fill="none" stroke="#000000" stroke-width="2" d="M149.3333,-99C149.3333,-99 198.6667,-99 198.6667,-99 204.3333,-99 210,-104.6667 210,-110.3333 210,-110.3333 210,-121.6667 210,-121.6667 210,-127.3333 204.3333,-133 198.6667,-133 198.6667,-133 149.3333,-133 149.3333,-133 143.6667,-133 138,-127.3333 138,-121.6667 138,-121.6667 138,-110.3333 138,-110.3333 138,-104.6667 143.6667,-99 149.3333,-99"/>
</g>
<!-- DELAY_0&#45;&gt;DELAY_1 -->
<g id="edge2" class="edge transition">
<title>DELAY_0&#45;&gt;DELAY_1</title>
<path fill="none" stroke="#000000" d="M114.0888,-179.8015C124.6558,-168.5483 138.3783,-153.9348 150.0234,-141.5335"/>
<polygon fill="#000000" stroke="#000000" points="152.6651,-143.8333 156.959,-134.1476 147.5622,-139.0416 152.6651,-143.8333"/>
<text text-anchor="start" x="140" y="-154" font-family="Helvetica,sans-Serif" font-size="10.00" fill="#000000">not (q_table_tails.wr_en) &#160;&#160;</text>
</g>
<!-- ENQUEUE_REQUEST -->
<g id="node5" class="node state regular">
<title>ENQUEUE_REQUEST</title>
<polygon fill="#ffffff" fill-opacity="0.003922" stroke="transparent" stroke-width="2" points="346,-52 200,-52 200,-16 346,-16 346,-52"/>
<text text-anchor="start" x="210.999" y="-30.2" font-family="Helvetica,sans-Serif" font-size="12.00" fill="#000000">ENQUEUE_REQUEST</text>
<path fill="none" stroke="#000000" stroke-width="2" d="M212.3333,-17C212.3333,-17 333.6667,-17 333.6667,-17 339.3333,-17 345,-22.6667 345,-28.3333 345,-28.3333 345,-39.6667 345,-39.6667 345,-45.3333 339.3333,-51 333.6667,-51 333.6667,-51 212.3333,-51 212.3333,-51 206.6667,-51 201,-45.3333 201,-39.6667 201,-39.6667 201,-28.3333 201,-28.3333 201,-22.6667 206.6667,-17 212.3333,-17"/>
</g>
<!-- DELAY_1&#45;&gt;ENQUEUE_REQUEST -->
<g id="edge3" class="edge transition">
<title>DELAY_1&#45;&gt;ENQUEUE_REQUEST</title>
<path fill="none" stroke="#000000" d="M195.9713,-97.8015C209.8139,-86.336 227.8678,-71.3822 243.0176,-58.8339"/>
<polygon fill="#000000" stroke="#000000" points="245.6214,-61.2219 251.0901,-52.1476 241.1562,-55.831 245.6214,-61.2219"/>
<text text-anchor="middle" x="231.3895" y="-72" font-family="Helvetica,sans-Serif" font-size="10.00" fill="#000000"> </text>
</g>
<!-- ENQUEUE_REQUEST&#45;&gt;IDLE -->
<g id="edge4" class="edge transition">
<title>ENQUEUE_REQUEST&#45;&gt;IDLE</title>
<path fill="none" stroke="#000000" d="M346.1355,-48.1671C369.2992,-54.7889 389,-63.7327 389,-75 389,-157 389,-157 389,-157 389,-196.1338 412.3083,-216.0288 386,-245 378.38,-253.3912 229.0358,-269.1588 157.0991,-276.3082"/>
<polygon fill="#000000" stroke="#000000" points="156.6807,-272.8324 147.0732,-277.2986 157.3689,-279.7985 156.6807,-272.8324"/>
<text text-anchor="middle" x="390.3895" y="-154" font-family="Helvetica,sans-Serif" font-size="10.00" fill="#000000"> </text>
</g>
</g>
</svg>
