<?xml version="1.0" encoding="UTF-8" standalone="no"?>
<!DOCTYPE svg PUBLIC "-//W3C//DTD SVG 1.1//EN"
 "http://www.w3.org/Graphics/SVG/1.1/DTD/svg11.dtd">
<!-- Generated by graphviz version 2.40.1 (20161225.0304)
 -->
<!-- Title: state transitions Pages: 1 -->
<svg width="410pt" height="270pt"
 viewBox="0.00 0.00 410.00 270.00" xmlns="http://www.w3.org/2000/svg" xmlns:xlink="http://www.w3.org/1999/xlink">
<g id="graph0" class="graph" transform="scale(1 1) rotate(0) translate(4 266)">
<title>state transitions</title>
<polygon fill="#ffffff" stroke="transparent" points="-4,4 -4,-266 406,-266 406,4 -4,4"/>
<g id="clust1" class="cluster state regular">
<title>cluster_rddm_dsc_state</title>
<path fill="none" stroke="#000000" stroke-width="2" d="M20,-8C20,-8 382,-8 382,-8 388,-8 394,-14 394,-20 394,-20 394,-242 394,-242 394,-248 388,-254 382,-254 382,-254 20,-254 20,-254 14,-254 8,-248 8,-242 8,-242 8,-20 8,-20 8,-14 14,-8 20,-8"/>
<text text-anchor="start" x="158.8226" y="-235.2" font-family="Helvetica,sans-Serif" font-size="12.00" fill="#000000">rddm_dsc_state</text>
</g>
<!-- rddm_dsc_state -->
<!-- START_TRANSFER -->
<g id="node2" class="node state regular">
<title>START_TRANSFER</title>
<polygon fill="#ffffff" fill-opacity="0.003922" stroke="transparent" stroke-width="2" points="364,-216 232,-216 232,-180 364,-180 364,-216"/>
<text text-anchor="start" x="242.6704" y="-194.2" font-family="Helvetica,sans-Serif" font-size="12.00" fill="#000000">START_TRANSFER</text>
<path fill="none" stroke="#ff0000" stroke-width="2" d="M244.3333,-181C244.3333,-181 351.6667,-181 351.6667,-181 357.3333,-181 363,-186.6667 363,-192.3333 363,-192.3333 363,-203.6667 363,-203.6667 363,-209.3333 357.3333,-215 351.6667,-215 351.6667,-215 244.3333,-215 244.3333,-215 238.6667,-215 233,-209.3333 233,-203.6667 233,-203.6667 233,-192.3333 233,-192.3333 233,-186.6667 238.6667,-181 244.3333,-181"/>
</g>
<!-- RDDM_DSC_STATE_DELAY_0 -->
<g id="node3" class="node state regular">
<title>RDDM_DSC_STATE_DELAY_0</title>
<polygon fill="#ffffff" fill-opacity="0.003922" stroke="transparent" stroke-width="2" points="210,-216 16,-216 16,-180 210,-180 210,-216"/>
<text text-anchor="start" x="26.6612" y="-194.2" font-family="Helvetica,sans-Serif" font-size="12.00" fill="#000000">RDDM_DSC_STATE_DELAY_0</text>
<path fill="none" stroke="#000000" stroke-width="2" d="M28.3333,-181C28.3333,-181 197.6667,-181 197.6667,-181 203.3333,-181 209,-186.6667 209,-192.3333 209,-192.3333 209,-203.6667 209,-203.6667 209,-209.3333 203.3333,-215 197.6667,-215 197.6667,-215 28.3333,-215 28.3333,-215 22.6667,-215 17,-209.3333 17,-203.6667 17,-203.6667 17,-192.3333 17,-192.3333 17,-186.6667 22.6667,-181 28.3333,-181"/>
</g>
<!-- RDDM_DSC_STATE_DELAY_1 -->
<g id="node4" class="node state regular">
<title>RDDM_DSC_STATE_DELAY_1</title>
<polygon fill="#ffffff" fill-opacity="0.003922" stroke="transparent" stroke-width="2" points="210,-134 16,-134 16,-98 210,-98 210,-134"/>
<text text-anchor="start" x="26.6612" y="-112.2" font-family="Helvetica,sans-Serif" font-size="12.00" fill="#000000">RDDM_DSC_STATE_DELAY_1</text>
<path fill="none" stroke="#000000" stroke-width="2" d="M28.3333,-99C28.3333,-99 197.6667,-99 197.6667,-99 203.3333,-99 209,-104.6667 209,-110.3333 209,-110.3333 209,-121.6667 209,-121.6667 209,-127.3333 203.3333,-133 197.6667,-133 197.6667,-133 28.3333,-133 28.3333,-133 22.6667,-133 17,-127.3333 17,-121.6667 17,-121.6667 17,-110.3333 17,-110.3333 17,-104.6667 22.6667,-99 28.3333,-99"/>
</g>
<!-- RDDM_DSC_STATE_DELAY_0&#45;&gt;RDDM_DSC_STATE_DELAY_1 -->
<g id="edge1" class="edge transition">
<title>RDDM_DSC_STATE_DELAY_0&#45;&gt;RDDM_DSC_STATE_DELAY_1</title>
<path fill="none" stroke="#000000" d="M113,-179.8015C113,-169.3976 113,-156.1215 113,-144.3768"/>
<polygon fill="#000000" stroke="#000000" points="116.5001,-144.1476 113,-134.1476 109.5001,-144.1476 116.5001,-144.1476"/>
<text text-anchor="middle" x="114.3895" y="-154" font-family="Helvetica,sans-Serif" font-size="10.00" fill="#000000"> </text>
</g>
<!-- CONTINUE_TRANSFER -->
<g id="node5" class="node state regular">
<title>CONTINUE_TRANSFER</title>
<polygon fill="#ffffff" fill-opacity="0.003922" stroke="transparent" stroke-width="2" points="190.5,-52 35.5,-52 35.5,-16 190.5,-16 190.5,-52"/>
<text text-anchor="start" x="46.5082" y="-30.2" font-family="Helvetica,sans-Serif" font-size="12.00" fill="#000000">CONTINUE_TRANSFER</text>
<path fill="none" stroke="#000000" stroke-width="2" d="M47.8333,-17C47.8333,-17 178.1667,-17 178.1667,-17 183.8333,-17 189.5,-22.6667 189.5,-28.3333 189.5,-28.3333 189.5,-39.6667 189.5,-39.6667 189.5,-45.3333 183.8333,-51 178.1667,-51 178.1667,-51 47.8333,-51 47.8333,-51 42.1667,-51 36.5,-45.3333 36.5,-39.6667 36.5,-39.6667 36.5,-28.3333 36.5,-28.3333 36.5,-22.6667 42.1667,-17 47.8333,-17"/>
</g>
<!-- RDDM_DSC_STATE_DELAY_1&#45;&gt;CONTINUE_TRANSFER -->
<g id="edge2" class="edge transition">
<title>RDDM_DSC_STATE_DELAY_1&#45;&gt;CONTINUE_TRANSFER</title>
<path fill="none" stroke="#000000" d="M113,-97.8015C113,-87.3976 113,-74.1215 113,-62.3768"/>
<polygon fill="#000000" stroke="#000000" points="116.5001,-62.1476 113,-52.1476 109.5001,-62.1476 116.5001,-62.1476"/>
<text text-anchor="middle" x="114.3895" y="-72" font-family="Helvetica,sans-Serif" font-size="10.00" fill="#000000"> </text>
</g>
</g>
</svg>
