<?xml version="1.0" encoding="UTF-8" standalone="no"?>
<svg
   width="1200pt"
   height="1200pt"
   version="1.1"
   viewBox="0 0 1200 1200"
   id="svg51"
   sodipodi:docname="enso-white.svg"
   inkscape:version="1.2.2 (b0a84865, 2022-12-01)"
   xmlns:inkscape="http://www.inkscape.org/namespaces/inkscape"
   xmlns:sodipodi="http://sodipodi.sourceforge.net/DTD/sodipodi-0.dtd"
   xmlns="http://www.w3.org/2000/svg"
   xmlns:svg="http://www.w3.org/2000/svg">
  <sodipodi:namedview
     id="namedview53"
     pagecolor="#ffffff"
     bordercolor="#000000"
     borderopacity="0.25"
     inkscape:showpageshadow="2"
     inkscape:pageopacity="0.0"
     inkscape:pagecheckerboard="0"
     inkscape:deskcolor="#d1d1d1"
     inkscape:document-units="pt"
     showgrid="false"
     inkscape:zoom="0.548125"
     inkscape:cx="801.8244"
     inkscape:cy="880.27366"
     inkscape:window-width="1390"
     inkscape:window-height="1027"
     inkscape:window-x="2794"
     inkscape:window-y="353"
     inkscape:window-maximized="0"
     inkscape:current-layer="svg51" />
  <defs
     id="defs11">
    <clipPath
       id="c">
      <path
         d="m722 339h399.55v738h-399.55z"
         id="path2" />
    </clipPath>
    <clipPath
       id="b">
      <path
         d="m81.555 79.555h1012.4v1022.4h-1012.4z"
         id="path5" />
    </clipPath>
    <clipPath
       id="a">
      <path
         d="m198 79.555h338v183.45h-338z"
         id="path8" />
    </clipPath>
  </defs>
  <path
     d="m 359.40722,233.8837 c -0.94033,0.73813 -8.24143,6.27476 -15.8767,12.38945 -7.93117,4.40142 -16.57889,9.16085 -27.65726,14.56821 -0.46723,-0.52695 -0.9309,-1.05166 -1.4797,-1.88273 17.41566,-11.50099 39.66725,-25.59545 45.01364,-25.07567"
     id="path13"
     style="fill:#ffffff" />
  <g
     clip-path="url(#c)"
     id="g17"
     transform="rotate(-150,600.36541,602.90085)"
     style="fill:#ffffff">
    <path
       d="m 1114.7,519.11 c 8.2227,49.332 9.332,98.891 2.668,148.67 -12.668,96.223 -52.445,180.89 -111.33,257.11 -22.223,28.668 -48.223,53.777 -77.109,75.777 -46.445,35.332 -97.555,60 -154.89,70.891 -16.891,3.1094 -34.445,4.4453 -51.777,5.332 13.777,-9.5547 30.223,-10.445 45.332,-14.891 32.223,-9.1094 64.223,-20 93.109,-36.891 41.555,-24.223 80.891,-51.777 113.78,-87.777 63.332,-69.777 106.45,-149.55 125.11,-242.22 14,-69.109 12.445,-137.78 -4,-206.22 -7.332,-31.109 -13.555,-62.445 -25.332,-92.223 -7.5547,-18.668 -15.777,-36.668 -25.555,-54 l 6.8906,-3.1094 c 31.773,56.004 52.441,115.78 63.109,179.56"
       id="path15"
       style="fill:#ffffff" />
  </g>
  <path
     d="m 162.20495,570.10797 c 3.13676,-60.54284 20.36234,-117.05056 50.47732,-169.21133 -31.42458,69.10045 -40.07197,98.74304 -50.47732,169.21133"
     id="path19"
     style="fill:#ffffff" />
  <path
     d="m 314.44921,259.25372 -0.19305,-0.11192 c 2.54865,-2.63322 20.21485,-15.01297 23.50381,-16.70981 20.91954,-11.78747 49.61952,-25.4971 72.97814,-34.84766 5.65393,5.31659 -21.4216,13.54957 -30.1825,18.49572 -14.06122,7.01888 -24.28721,13.17682 -36.85941,20.28849 7.63309,-6.11169 14.74484,-11.7578 15.87651,-12.38969 -5.53814,-0.62629 -27.78943,13.4687 -45.12316,25.27341"
     id="path21"
     style="fill:#ffffff" />
  <path
     d="m 202.3663,466.78627 c 19.71905,-76.3725 60.02183,-139.07117 123.76263,-185.91682 11.66918,-8.65729 24.43437,-15.65749 36.65444,-23.48749 1.24474,-0.81911 3.06592,-1.31072 5.32294,-0.77428 -1.68996,1.59074 -3.37614,3.18374 -5.25907,4.66308 -36.29394,29.08124 -67.58853,62.84904 -94.08722,101.18234 -33.34683,47.97732 -56.89389,100.32395 -70.15963,157.07412 l -8.72959,-2.21635 c 3.99069,-16.68512 8.08928,-33.56532 12.49389,-50.52177"
     id="path23"
     style="fill:#ffffff" />
  <g
     clip-path="url(#b)"
     id="g27"
     transform="rotate(-150,600.36541,602.90085)"
     style="fill:#ffffff">
    <path
       d="m 1086.4,514.89 c -7.1094,-46.223 -17.109,-91.777 -35.332,-135.11 -10.445,-24.668 -24,-47.555 -38.445,-70 -3.1094,-4.8906 -5.5547,-10.223 -8.4453,-15.555 0.8906,-0.66797 1.5547,-1.1094 2.4453,-1.7773 4,4 8.2227,7.5547 11.777,11.777 10,12 18.668,24.891 26.223,38.445 l 6.8906,-3.1094 c -7.332,-12.891 -15.109,-25.332 -23.555,-37.777 -32.891,-48.223 -72.223,-90 -120.22,-123.55 -42.445,-29.555 -88.668,-51.777 -137.78,-68.445 -69.109,-23.555 -139.55,-35.109 -212.89,-29.109 -60,4.8906 -115.55,21.109 -167.55,46.668 -27.109,13.555 -53.332,29.555 -78.668,47.777 -34.445,25.109 -67.109,52.445 -95.332,84.668 -25.109,28.445 -48.223,58.668 -64.891,92.891 -22.223,46 -34.445,95.332 -42.891,145.33 -3.7773,22.668 -7.332,45.555 -11.109,68.223 -0.44531,2.8906 -2,5.5547 -3.1094,8.4453 -0.66797,-0.22266 -1.332,-0.44531 -2,-0.66797 1.1094,-14.668 1.5547,-29.332 3.332,-43.777 4.4453,-40.223 13.777,-79.109 26.445,-117.55 15.777,-48 35.109,-94 66.223,-134.45 3.5547,-4.4453 6.4453,-9.332 9.7773,-14 -4,4.4453 -8,8.8906 -11.777,13.555 -30.445,37.777 -52.891,80 -70.223,125.11 -28.668,75.555 -38.891,152.89 -31.332,232.22 5.7773,60.891 20.668,119.55 45.777,175.33 11.109,24.668 24.668,36.223 36.223,60.668 11.109,23.555 23.777,43.777 39.332,64.668 13.555,18.223 28,29.332 42,47.332 10.223,12.891 16,15.332 26.445,27.77697 2,2.4453 10.445,12.668 13.555,13.555 5.5547,1.332 11.777,8.8906 16.891,11.109 10.668,4.4453 20.891,10.223 31.332,15.555 19.109,9.7773 33.555,20.445 52.668,30 2.2227,1.1094 11.777,3.332 15.109,4.2227 -1.7773,-3.5547 -4.8906,-1.332 -6.8906,-5.5547 9.1094,2.668 16,4.4453 25.555,7.5547 12.445,4 35.777,10.891 48.445,14.445 4,1.1094 1.7773,-2 6,-2 0.22266,-0.4453 6.8906,1.1094 7.1094,0.668 -2.4453,-2 4.2227,-2 1.332,-4.4453 1.5547,-0.8906 2.4453,-1.332 3.5547,-2 12.445,-8.8906 25.332,-10.891 37.555,-20.223 4.2227,-3.1094 8,-7.7773 6.4453,-14.223 -2.2227,-8.8906 -3.7773,-18.223 -7.1094,-26.891 -2.8906,-7.1094 -6.668,-14.891 -12.445,-19.555 -12.891,-10.223 -14.223,-23.109 -27.777,-32.445 -9.5547,-6.4453 -39.332,-17.332 -48.223,-24.668 -12,-10.445 -36.668,-10.668 -48,-21.777 -13.777,-13.555 -35.109,-26.223 -47.332,-41.109 -89.555,-78.223 -110.67,-158.45 -123.78,-219.33 -2,-8.4453 -1.332,-37.109 -3.332,-46.668 -1.5547,2.4453 -2.4453,3.7773 -4,6 -0.66797,-3.332 -1.1094,-5.332 -1.332,-7.5547 -5.332,-61.109 1.1094,-120.89 22.223,-178.67 7.332,-20.223 16,-39.332 26.223,-57.332 37.332,-67.332 92.668,-119.11 161.78,-158.89 24.891,-14.445 50.891,-25.109 77.555,-32.668 39.332,-11.109 80.223,-14.891 122.45,-13.109 56,2.4453 108.89,18 159.55,40.891 37.109,16.668 72.223,37.109 101.33,65.777 16,15.777 30,33.777 43.777,51.555 28.445,36.891 49.332,78 63.777,122.22 0.89062,2.8906 1.7773,5.7773 2.668,8.668 l 8.668,-2.4453 c -2.2227,-7.5547 -4.2227,-15.109 -6.4453,-22.445 -0.89062,-3.1094 -0.66797,-6.668 -1.1094,-10.891 3.7773,1.332 5.7773,2.2227 8.4453,3.1094 3.332,-10.668 -2.668,-19.555 -3.332,-29.109 27.555,54 40.891,111.55 40.891,171.78 0,37.109 -2.8906,74.223 -6.668,111.11 -2.2227,20.668 -15.555,43.109 -20.223,63.332 -0.2227,1.5547 -4.8906,13.555 -9.332,24.445 4.668,-7.7773 9.7773,-16.223 16.668,-26.445 0.668,0.22266 1.332,0.44531 2.2227,0.89063 5.5547,-11.555 9.7773,-21.332 10.445,-23.777 7.1094,-24.891 12.668,-36.668 14.445,-62.668 1.332,-19.332 2.8906,-38.445 3.1094,-57.555 0.2227,-26.891 -1.332,-42.668 -3.1094,-69.555 -1.332,-17.777 -7.5547,-46.668 -11.332,-64 -11.555,-49.777 -35.109,-94.223 -61.777,-137.33 -4.4453,-7.1094 -8.4453,-14.445 -13.109,-22.668 28.223,4.668 96,129.33 98.223,177.78 -5.7773,-14 -11.332,-27.555 -16.891,-41.332 -0.8906,0.22266 -1.5547,0.66797 -2.4453,0.89063 22.445,70.445 25.109,142.89 23.109,216 1.332,-10.223 2.8906,-20.223 4.2227,-30.445 0.8906,8.4453 1.332,16.668 0,24.891 -2.668,16 -4.668,32.445 -10.668,47.109 -3.7773,9.1094 -6.668,18.445 -10.445,27.555 -9.332,22.668 -18,45.777 -28.668,67.555 -10,20.223 -21.332,40 -34,58.891 -10,15.109 -23.777,27.777 -34,42.668 -11.109,16 -24.891,28.445 -40,39.777 -16,12 -32,24.223 -46.223,38.223 -10,10 -21.109,17.77704 -34,26.00004 2,1.7773 3.7773,4.668 5.1094,4.4453 6.668,-1.332 13.777,1.1094 20,-3.332 10,-7.1094 22,-11.777 30.668,-20.22304 9.5547,-9.1094 19.109,-18 30.445,-24.223 24,-12.891 42.668,-31.777 58.668,-53.109 19.332,-25.777 36.668,-53.109 55.332,-79.555 35.777,-50.445 54.445,-106.89 62.445,-167.55 6.6602,-52.012 4.6602,-104.46 -3.3398,-156.9 z m -122,-154.22 c 4.668,7.7773 13.555,13.332 13.555,24 -0.66797,0.44531 -1.332,0.66797 -2,1.1094 -4.4453,-8 -8.8906,-16 -13.332,-24 0.66406,-0.22266 1.332,-0.66797 1.7773,-1.1094 z m -14.668,-20.668 c -4.2227,-4.4453 -8.668,-9.1094 -12.891,-13.555 -47.996,-52 -104,-93.113 -170,-119.78 -16.668,-6.668 -34.668,-9.7773 -52,-15.109 -8.668,-2.668 -16.891,-6.668 -25.332,-10 0.44531,-0.89062 0.89062,-2 1.1094,-2.8906 17.777,4.8906 35.777,9.5547 53.332,14.891 33.555,9.7773 66.445,22 96.891,39.332 32.891,18.891 61.109,43.555 85.555,72.668 8,9.332 14.891,19.555 22.445,29.555 0.88672,0.88672 1.5547,2.4414 0.88672,4.8867 z"
       id="path25"
       style="fill:#ffffff" />
  </g>
  <path
     d="m 613.44174,132.98275 c 0.65354,-4.24142 0.86193,-7.71132 6.25891,-6.39503 0.68987,0.14084 1.79167,0.01 1.81958,-0.48808 3.86679,-8.03325 10.52222,-4.44353 16.25142,-3.70211 10.96468,1.45453 21.67639,3.79177 32.49566,5.93403 -0.0597,0.99384 -0.22862,2.1772 -0.0989,3.28059 -18.85112,0.65888 -37.48494,0.93393 -56.72669,1.3713"
     id="path29"
     style="fill:#ffffff" />
  <path
     d="m 423.58902,972.47735 c -15.30474,1.17265 -84.33731,-44.58751 -88.66375,-57.08982 29.24602,18.68041 58.18417,37.44006 88.66375,57.08982"
     id="path31"
     style="fill:#ffffff" />
  <path
     d="m 489.28632,999.1263 c -4.70859,-1.18047 -9.35621,-3.34896 -13.84372,-4.91186 50.74674,12.10396 101.26555,13.04896 152.62761,4.98109 49.45809,-7.88195 96.414,-23.88383 142.72434,-42.30575 3.97654,-1.55164 8.03316,-2.80445 12.20248,-4.24474 0.60836,-0.163 1.29474,-0.0238 4.15987,0.34946 -4.83735,2.59733 -7.93124,4.40135 -11.10864,5.90477 -49.08644,23.23814 -100.39285,38.77551 -154.06802,45.51363 -44.45555,5.8892 -88.77922,6.2162 -132.68778,-5.278"
     id="path33"
     style="fill:#ffffff" />
  <g
     clip-path="url(#a)"
     id="g37"
     transform="rotate(-150,600.36541,602.90085)"
     style="fill:#ffffff">
    <path
       d="m 535.11,75.332 c -9.7773,4.8906 -83.777,18.668 -93.555,23.332 -17.777,8.668 -35.555,17.332 -53.332,26.223 -16.223,8 -32.223,16 -48.445,24.223 -37.777,19.109 -71.109,44.668 -101.78,73.777 -11.777,11.332 -22.445,23.777 -33.777,35.555 -1.5547,1.5547 -3.332,2.8906 -5.332,4.4453 6.4453,-7.7773 12.223,-15.777 19.109,-23.109 27.109,-29.332 56.668,-55.332 88.668,-78.668 42.668,-31.332 89.109,-55.332 139.78,-71.332 7.7773,-2.4453 35.777,-9.1094 44.223,-10"
       id="path35"
       style="fill:#ffffff" />
  </g>
  <path
     d="m 778.64892,1097.9355 c -0.30399,0.082 -0.60837,0.163 -1.10526,0.133 0.3095,-0.083 0.91242,-0.2448 1.10526,-0.133 z"
     id="path39"
     style="fill:#ffffff" />
  <path
     d="m 778.64892,1097.9355 c 0.52697,-0.467 1.13329,-0.6265 1.73808,-0.7918 -0.60281,0.1621 -1.12955,0.6291 -1.73808,0.7918"
     id="path41"
     style="fill:#ffffff" />
  <path
     d="m 419.92115,174.38988 c 0.35606,0.71992 -42.52246,16.76145 -42.16691,17.48185 31.58567,-5.37179 94.62756,-25.68205 119.78862,-30.14446 9.98791,-2.18983 25.89916,-3.52194 34.29963,-9.19054 -25.23301,2.36924 -56.59268,7.35762 -79.9107,12.62761 -3.44633,1.08658 -28.9121,7.42106 -32.01097,9.22672"
     id="path43"
     style="fill:#ffffff" />
  <path
     d="m 311.08474,298.88031 c 65.9412,-51.99552 151.83277,-96.31776 224.47709,-112.36546 -88.01036,6.66471 -166.45281,49.64451 -224.47709,112.36546"
     id="path45"
     style="fill:#ffffff" />
  <path
     d="m 326.11043,255.45525 c 55.27805,-40.19036 169.30146,-75.45872 237.66056,-88.08012 -85.05928,5.54542 -191.85526,39.86296 -237.66056,88.08012"
     id="path47"
     style="fill:#ffffff" />
  <path
     d="m 945.18767,418.38196 c -16.92552,-0.0201 -64.0479,-70.84775 -59.714,-96.57225 18.23318,27.97326 13.83986,36.47464 30.30432,59.06545"
     id="path49"
     style="fill:#ffffff" />
</svg>
