<?xml version="1.0" encoding="UTF-8" standalone="no"?>
<!DOCTYPE svg PUBLIC "-//W3C//DTD SVG 1.1//EN"
 "http://www.w3.org/Graphics/SVG/1.1/DTD/svg11.dtd">
<!-- Generated by graphviz version 2.40.1 (20161225.0304)
 -->
<!-- Title: state transitions Pages: 1 -->
<svg width="656pt" height="482pt"
 viewBox="0.00 0.00 655.80 482.00" xmlns="http://www.w3.org/2000/svg" xmlns:xlink="http://www.w3.org/1999/xlink">
<g id="graph0" class="graph" transform="scale(1 1) rotate(0) translate(4 478)">
<title>state transitions</title>
<polygon fill="#ffffff" stroke="transparent" points="-4,4 -4,-478 651.798,-478 651.798,4 -4,4"/>
<g id="clust1" class="cluster state regular">
<title>cluster_state</title>
<path fill="none" stroke="#000000" stroke-width="2" d="M20,-8C20,-8 552,-8 552,-8 558,-8 564,-14 564,-20 564,-20 564,-454 564,-454 564,-460 558,-466 552,-466 552,-466 20,-466 20,-466 14,-466 8,-460 8,-454 8,-454 8,-20 8,-20 8,-14 14,-8 20,-8"/>
<text text-anchor="start" x="272.9944" y="-447.2" font-family="Helvetica,sans-Serif" font-size="12.00" fill="#000000">state</text>
</g>
<!-- state -->
<!-- WAIT_STATABLE -->
<g id="node2" class="node state regular">
<title>WAIT_STATABLE</title>
<polygon fill="#ffffff" fill-opacity="0.003922" stroke="transparent" stroke-width="2" points="329,-428 209,-428 209,-392 329,-392 329,-428"/>
<text text-anchor="start" x="219.9938" y="-406.2" font-family="Helvetica,sans-Serif" font-size="12.00" fill="#000000">WAIT_STATABLE</text>
<path fill="none" stroke="#000000" stroke-width="2" d="M221.3333,-393C221.3333,-393 316.6667,-393 316.6667,-393 322.3333,-393 328,-398.6667 328,-404.3333 328,-404.3333 328,-415.6667 328,-415.6667 328,-421.3333 322.3333,-427 316.6667,-427 316.6667,-427 221.3333,-427 221.3333,-427 215.6667,-427 210,-421.3333 210,-415.6667 210,-415.6667 210,-404.3333 210,-404.3333 210,-398.6667 215.6667,-393 221.3333,-393"/>
</g>
<!-- INIT -->
<g id="node3" class="node state regular">
<title>INIT</title>
<polygon fill="#ffffff" fill-opacity="0.003922" stroke="transparent" stroke-width="2" points="297,-346 241,-346 241,-310 297,-310 297,-346"/>
<text text-anchor="start" x="257.6684" y="-324.2" font-family="Helvetica,sans-Serif" font-size="12.00" fill="#000000">INIT</text>
<path fill="none" stroke="#000000" stroke-width="2" d="M253.3333,-311C253.3333,-311 284.6667,-311 284.6667,-311 290.3333,-311 296,-316.6667 296,-322.3333 296,-322.3333 296,-333.6667 296,-333.6667 296,-339.3333 290.3333,-345 284.6667,-345 284.6667,-345 253.3333,-345 253.3333,-345 247.6667,-345 242,-339.3333 242,-333.6667 242,-333.6667 242,-322.3333 242,-322.3333 242,-316.6667 247.6667,-311 253.3333,-311"/>
</g>
<!-- WAIT_STATABLE&#45;&gt;INIT -->
<g id="edge1" class="edge transition">
<title>WAIT_STATABLE&#45;&gt;INIT</title>
<path fill="none" stroke="#000000" d="M269,-391.8015C269,-381.3976 269,-368.1215 269,-356.3768"/>
<polygon fill="#000000" stroke="#000000" points="272.5001,-356.1476 269,-346.1476 265.5001,-356.1476 272.5001,-356.1476"/>
<text text-anchor="start" x="269" y="-366" font-family="Helvetica,sans-Serif" font-size="10.00" fill="#000000">statable_cnt == 50 &#160;&#160;</text>
</g>
<!-- IDLE -->
<g id="node4" class="node state regular">
<title>IDLE</title>
<polygon fill="#ffffff" fill-opacity="0.003922" stroke="transparent" stroke-width="2" points="297,-252 241,-252 241,-216 297,-216 297,-252"/>
<text text-anchor="start" x="255.6644" y="-230.2" font-family="Helvetica,sans-Serif" font-size="12.00" fill="#000000">IDLE</text>
<path fill="none" stroke="#000000" stroke-width="2" d="M253.3333,-217C253.3333,-217 284.6667,-217 284.6667,-217 290.3333,-217 296,-222.6667 296,-228.3333 296,-228.3333 296,-239.6667 296,-239.6667 296,-245.3333 290.3333,-251 284.6667,-251 284.6667,-251 253.3333,-251 253.3333,-251 247.6667,-251 242,-245.3333 242,-239.6667 242,-239.6667 242,-228.3333 242,-228.3333 242,-222.6667 247.6667,-217 253.3333,-217"/>
</g>
<!-- INIT&#45;&gt;IDLE -->
<g id="edge2" class="edge transition">
<title>INIT&#45;&gt;IDLE</title>
<path fill="none" stroke="#000000" d="M269,-309.8759C269,-296.3516 269,-277.6192 269,-262.1514"/>
<polygon fill="#000000" stroke="#000000" points="272.5001,-262.0685 269,-252.0685 265.5001,-262.0685 272.5001,-262.0685"/>
<text text-anchor="start" x="269" y="-284" font-family="Helvetica,sans-Serif" font-size="10.00" fill="#000000">emptylist_in_data == PKT_NUM&#45;1 &#160;&#160;</text>
<text text-anchor="start" x="269" y="-272" font-family="Helvetica,sans-Serif" font-size="10.00" fill="#000000">emptylist_in_valid &amp; emptylist_in_ready &#160;&#160;</text>
</g>
<!-- FIRST -->
<g id="node5" class="node state regular">
<title>FIRST</title>
<polygon fill="#ffffff" fill-opacity="0.003922" stroke="transparent" stroke-width="2" points="72,-146 16,-146 16,-110 72,-110 72,-146"/>
<text text-anchor="start" x="26.669" y="-124.2" font-family="Helvetica,sans-Serif" font-size="12.00" fill="#000000">FIRST</text>
<path fill="none" stroke="#000000" stroke-width="2" d="M28.3333,-111C28.3333,-111 59.6667,-111 59.6667,-111 65.3333,-111 71,-116.6667 71,-122.3333 71,-122.3333 71,-133.6667 71,-133.6667 71,-139.3333 65.3333,-145 59.6667,-145 59.6667,-145 28.3333,-145 28.3333,-145 22.6667,-145 17,-139.3333 17,-133.6667 17,-133.6667 17,-122.3333 17,-122.3333 17,-116.6667 22.6667,-111 28.3333,-111"/>
</g>
<!-- IDLE&#45;&gt;FIRST -->
<g id="edge3" class="edge transition">
<title>IDLE&#45;&gt;FIRST</title>
<path fill="none" stroke="#000000" d="M240.6649,-233.3814C188.4464,-231.6195 80.0257,-224.8607 54.536,-199 43.6254,-187.9306 40.8454,-170.7937 40.8632,-156.1294"/>
<polygon fill="#000000" stroke="#000000" points="44.3654,-156.1505 41.2944,-146.0105 37.3717,-155.8524 44.3654,-156.1505"/>
<text text-anchor="start" x="54" y="-178" font-family="Helvetica,sans-Serif" font-size="10.00" fill="#000000">meta_valid &amp; !almost_full &#160;&#160;</text>
</g>
<!-- FIRST&#45;&gt;IDLE -->
<g id="edge5" class="edge transition">
<title>FIRST&#45;&gt;IDLE</title>
<path fill="none" stroke="#000000" d="M72.1142,-131.896C99.5459,-136.5119 141.8681,-145.8397 175,-163 197.1933,-174.4948 198.2902,-183.894 218.202,-199 223.0121,-202.6491 228.1671,-206.3884 233.2818,-210.0011"/>
<polygon fill="#000000" stroke="#000000" points="231.5776,-213.0794 241.7836,-215.9234 235.5787,-207.3356 231.5776,-213.0794"/>
<text text-anchor="start" x="218" y="-184" font-family="Helvetica,sans-Serif" font-size="10.00" fill="#000000">not (meta_valid &amp; !almost_full) &#160;&#160;</text>
<text text-anchor="start" x="218" y="-172" font-family="Helvetica,sans-Serif" font-size="10.00" fill="#000000">pkt_flags == PKT_DROP &#160;&#160;</text>
</g>
<!-- FIRST&#45;&gt;IDLE -->
<g id="edge7" class="edge transition">
<title>FIRST&#45;&gt;IDLE</title>
<path fill="none" stroke="#000000" d="M72.1142,-128.9926C146.2677,-131.8979 342.7965,-141.567 362,-163 372.6769,-174.9165 371.1058,-185.8438 362,-199 355.3719,-208.5764 329.8654,-217.7872 307.238,-224.3542"/>
<polygon fill="#000000" stroke="#000000" points="306.1414,-221.0265 297.4522,-227.0886 308.0252,-227.7682 306.1414,-221.0265"/>
<text text-anchor="start" x="369" y="-190" font-family="Helvetica,sans-Serif" font-size="10.00" fill="#000000">not (meta_valid &amp; !almost_full) &#160;&#160;</text>
<text text-anchor="start" x="369" y="-178" font-family="Helvetica,sans-Serif" font-size="10.00" fill="#000000">flits == 1 &#160;&#160;</text>
<text text-anchor="start" x="369" y="-166" font-family="Helvetica,sans-Serif" font-size="10.00" fill="#000000">not (pkt_flags == PKT_DROP) &#160;&#160;</text>
</g>
<!-- FIRST&#45;&gt;FIRST -->
<g id="edge4" class="edge transition">
<title>FIRST&#45;&gt;FIRST</title>
<path fill="none" stroke="#000000" d="M72.0183,-130.4124C83.888,-130.5942 94,-129.79 94,-128 94,-126.7693 89.2205,-126.0047 82.3762,-125.706"/>
<polygon fill="#000000" stroke="#000000" points="82.0576,-122.2023 72.0183,-125.5876 81.9776,-129.2018 82.0576,-122.2023"/>
<text text-anchor="start" x="94" y="-131" font-family="Helvetica,sans-Serif" font-size="10.00" fill="#000000">meta_valid &amp; !almost_full &#160;&#160;</text>
<text text-anchor="start" x="94" y="-119" font-family="Helvetica,sans-Serif" font-size="10.00" fill="#000000">pkt_flags == PKT_DROP &#160;&#160;</text>
</g>
<!-- FIRST&#45;&gt;FIRST -->
<g id="edge6" class="edge transition">
<title>FIRST&#45;&gt;FIRST</title>
<path fill="none" stroke="#000000" d="M72.1577,-131.2013C122.0015,-134.2214 213.478,-133.1543 213.478,-128 213.478,-123.1779 133.4134,-121.9331 82.2787,-124.2657"/>
<polygon fill="#000000" stroke="#000000" points="81.9597,-120.7775 72.1577,-124.7987 82.328,-127.7678 81.9597,-120.7775"/>
<text text-anchor="start" x="213.478" y="-137" font-family="Helvetica,sans-Serif" font-size="10.00" fill="#000000">meta_valid &amp; !almost_full &#160;&#160;</text>
<text text-anchor="start" x="213.478" y="-125" font-family="Helvetica,sans-Serif" font-size="10.00" fill="#000000">flits == 1 &#160;&#160;</text>
<text text-anchor="start" x="213.478" y="-113" font-family="Helvetica,sans-Serif" font-size="10.00" fill="#000000">not (pkt_flags == PKT_DROP) &#160;&#160;</text>
</g>
<!-- MIDDLE -->
<g id="node6" class="node state regular">
<title>MIDDLE</title>
<polygon fill="#ffffff" fill-opacity="0.003922" stroke="transparent" stroke-width="2" points="264.5,-52 197.5,-52 197.5,-16 264.5,-16 264.5,-52"/>
<text text-anchor="start" x="208.8356" y="-30.2" font-family="Helvetica,sans-Serif" font-size="12.00" fill="#000000">MIDDLE</text>
<path fill="none" stroke="#000000" stroke-width="2" d="M209.8333,-17C209.8333,-17 252.1667,-17 252.1667,-17 257.8333,-17 263.5,-22.6667 263.5,-28.3333 263.5,-28.3333 263.5,-39.6667 263.5,-39.6667 263.5,-45.3333 257.8333,-51 252.1667,-51 252.1667,-51 209.8333,-51 209.8333,-51 204.1667,-51 198.5,-45.3333 198.5,-39.6667 198.5,-39.6667 198.5,-28.3333 198.5,-28.3333 198.5,-22.6667 204.1667,-17 209.8333,-17"/>
</g>
<!-- FIRST&#45;&gt;MIDDLE -->
<g id="edge8" class="edge transition">
<title>FIRST&#45;&gt;MIDDLE</title>
<path fill="none" stroke="#000000" d="M44.508,-109.9853C45.8707,-96.7847 49.8978,-79.4191 61.188,-69 79.2096,-52.3689 143.0815,-42.7299 187.138,-37.9196"/>
<polygon fill="#000000" stroke="#000000" points="187.7364,-41.3762 197.3179,-36.8547 187.008,-34.4142 187.7364,-41.3762"/>
<text text-anchor="start" x="61" y="-84" font-family="Helvetica,sans-Serif" font-size="10.00" fill="#000000">not (flits == 1) &#160;&#160;</text>
<text text-anchor="start" x="61" y="-72" font-family="Helvetica,sans-Serif" font-size="10.00" fill="#000000">not (pkt_flags == PKT_DROP) &#160;&#160;</text>
</g>
<!-- MIDDLE&#45;&gt;IDLE -->
<g id="edge10" class="edge transition">
<title>MIDDLE&#45;&gt;IDLE</title>
<path fill="none" stroke="#000000" d="M264.694,-37.1642C328.0504,-45.1759 463.3732,-72.5796 517,-163 525.1618,-176.7617 527.4935,-186.9216 517,-199 503.4654,-214.5789 373.6204,-226.2997 307.4144,-231.3171"/>
<polygon fill="#000000" stroke="#000000" points="307.0757,-227.8325 297.3628,-232.0644 307.5948,-234.8133 307.0757,-227.8325"/>
<text text-anchor="start" x="505" y="-131" font-family="Helvetica,sans-Serif" font-size="10.00" fill="#000000">not (meta_valid &amp; !almost_full) &#160;&#160;</text>
<text text-anchor="start" x="505" y="-119" font-family="Helvetica,sans-Serif" font-size="10.00" fill="#000000">flits_cnt == flits &#45; 1 &#160;&#160;</text>
</g>
<!-- MIDDLE&#45;&gt;FIRST -->
<g id="edge9" class="edge transition">
<title>MIDDLE&#45;&gt;FIRST</title>
<path fill="none" stroke="#000000" d="M227.5932,-52.1425C224.1498,-65.4101 217.4837,-82.8035 205,-93 186.5173,-108.0964 123.7298,-118.3825 82.2449,-123.7156"/>
<polygon fill="#000000" stroke="#000000" points="81.6887,-120.2577 72.1968,-124.9646 82.5522,-127.2042 81.6887,-120.2577"/>
<text text-anchor="start" x="221" y="-84" font-family="Helvetica,sans-Serif" font-size="10.00" fill="#000000">meta_valid &amp; !almost_full &#160;&#160;</text>
<text text-anchor="start" x="221" y="-72" font-family="Helvetica,sans-Serif" font-size="10.00" fill="#000000">flits_cnt == flits &#45; 1 &#160;&#160;</text>
</g>
</g>
</svg>
